<svg version="1.2" xmlns="http://www.w3.org/2000/svg" viewBox="0 0 694 420" width="694" height="420">
	<title>Star_Wars_Logo-svg</title>
	<style>
		.s0 { fill: #ffe81f } 
	</style>
	<g id="Layer_3">
	</g>
	<g id="Layer_2">
		<g id="Layer">
			<path id="Layer" fill-rule="evenodd" class="s0" d="m43.2 213.2h32.7 5.7l1.9 5.4c3 8.6 7 20 10.5 29.7l10.4-29.7 1.9-5.4h48.1l1.9 5.4 8.7 25.5q0.8 2.4 1.5 4.6c3.4-9.6 7.4-21 10.3-29.7l1.9-5.4h49.8l-3.6 10.6-39.7 115.6-1.9 5.4h-34.2l-1.9-5.3c0 0-6.1-17.7-12.2-35.3-1.6-4.8-3.3-9.6-4.8-14l-17.7 48.5-1.9 5.3h-34l-1.8-5.5-39.2-115.1-3.6-10.6zm68.8 8l-17.9 50.8q0 0 0 0c-0.2 0-18.2-50.8-18.2-50.8h-32.7l39.2 115.2h22.6l25.5-69.9c-0.1 0.3 24.3 70.7 24.3 70.7h22.8l39.7-115.6h-32.9c0 0-16.9 49.3-17.5 49.8q-0.1 0-0.1 0c-0.5 0-4.7-11-9.4-24.7l-8.7-25.5c0 0-36.7 0-36.7 0zm18.5 45.3q0 0 0 0z"/>
		</g>
		<g id="Layer">
			<path id="Layer" fill-rule="evenodd" class="s0" d="m663.3 220.8l-0.1 30.3v8h-8c-0.4 0-32.9-0.1-49.3-0.1-2 0-3.6 0-4.9 0 1 1.4 2.5 3.6 4.5 6.1 2.5 3.1 6.1 7.7 9.2 11.5l2.6 3.2c8.7 10.9 10.9 14.3 11.9 22.4 1.6 12.4-4 25.6-14.7 34.3l-0.2 0.1c-5.2 4.2-8.7 6.7-19.4 7.7-9.5 0.9-25.3 0.9-56.8 0.9h-2.8c-58.3 0-61.6-0.7-63.5-1.1-7.3-1.7-15.4-8.1-39.6-31.3q-1.2-1.2-2.3-2.2l-0.1 26.7-0.1 8-8-0.1-35.9-0.1h-7.9v-8l-0.3-115v-8h88.3 0.1c13.8 0.5 26.8 7.4 35.7 18.8 7.7 9.9 11.1 21.5 9 31.1-0.9 4.3-3.1 10.2-5.1 13.6-3.2 5.6-10.2 12.2-17.1 16.4 0.8 0.6 1.5 1.2 1.9 1.5 3.5 0.7 20.3 0.7 40.2 0.7h5.8 4.8c11.3 0 22 0 26.2-0.5-1.9-2.9-7-8.7-10.1-12.1-15.5-15.5-16.7-24.9-16.7-33.3q0.1-0.6 0-1.3c-0.1-5.1 1.9-16 10.2-24.6 5.1-5.3 14.6-11.6 30.7-11.6h81.8zm-81.8-0.1c-27.7 0-33.1 21.3-32.8 28.1 0.1 5.7-1.6 13.3 14.4 29.3 12.7 14.3 14.1 16.5 12.3 20.4-2.6 5.5-0.9 5.7-34.2 5.7q-4.8 0-10.6 0c-33.1 0-40.6-0.2-43.2-1.3-3-1.3-11.1-9.2-11.1-10.9 0-0.5 2-1.8 4.4-2.9 6.7-3 14.8-10.1 18.1-15.6 1.5-2.6 3.4-7.7 4.1-11.2 3.3-15.3-13-39.3-37.2-40.2h-80l0.2 115 35.9 0.1 0.2-44.5q0-0.1 0.1-0.1c0.3 0 7.7 6.7 15.6 14.4 22.2 21.2 30.6 28.1 35.8 29.2 3 0.7 23.3 1 61.8 1q1.4 0 2.8 0c63.2 0 62.8 0 71.4-6.9 8.5-7 13-17.4 11.8-27.1-0.8-6-1.9-8-10.2-18.4-3.3-4.1-8.6-10.7-11.8-14.7-3.3-4.1-6.3-8.5-6.6-9.8-0.9-2.7 1-8.8 3.8-9.3 0.2 0 3.9-0.1 9.5-0.1 16.6 0 49.2 0.1 49.2 0.1l0.1-30.3zm-159.8 52c0 0 0.2-27.4 0.1-27.6l19.3 0.1c16.6 0.1 19.6 0.3 21.9 1.7 10.6 6.3 10 20.5-1 25.3-3.3 1.4-6.4 1.7-21.8 1.7-13.7 0-18.5-1.2-18.5-1.2zm18.5-6.8c14 0 16.8-0.3 18.6-1 3.1-1.4 3.7-3.7 3.8-5 0.1-2.3-1.2-4.6-3.6-6-1.9-0.6-11.6-0.6-18-0.7h-11.2c0 1.8 0 3.8 0 5.8 0 2.3 0 4.5 0 6.6 2.5 0.1 6 0.3 10.4 0.3z"/>
		</g>
		<g id="Layer">
			<path id="Layer" fill-rule="evenodd" class="s0" d="m320.5 217.7l40.3 115.9 3.6 10.6h-11.2l-32.8 0.2h-5.9l-1.8-5.6-3.7-11.9-46.8-0.4-3.5 11.7-1.7 5.8-6-0.1-32.5-0.3-11.1-0.1 3.6-10.5 39.8-115.3 1.8-5.4h5.7 54.6 5.7zm-62.2 2.7l-39.7 115.2 32.5 0.3 5.1-17.4 58.7 0.5 5.5 17.4 32.8-0.2-40.3-115.9zm28.2 16.9q0 0 0 0c0.1 0.7 18.8 55.7 19 56.2q0 0 0 0 0 0 0 0 0 0 0 0c-0.1 0-4.1 0-9.6 0-11.6 0-29.8 0-29.9 0.1q0 0 0 0 0 0 0 0c0-0.1 5.2-14.1 10.3-28.1 5.1-13.9 10.1-27.8 10.2-28.2q0 0 0 0zm7.8 48.2c-2.4-7.2-5.3-15.5-5.9-17.4q-1.2-3.5-2.2-6.4-1.1 2.9-2.4 6.5c-2.8 7.6-4.8 13.2-6.3 17.3 4.1 0 9.6 0 16.8 0z"/>
		</g>
		<g id="Layer">
			<path id="Layer" fill-rule="evenodd" class="s0" d="m334.5 73.9v44.6h-57.3v87.5h-50.1v-87.5l-58.9 0.1c-0.5 0-0.8 0.1-1 0.1-0.1 0.2-0.1 0.4-0.1 0.6 1 2.3 7.2 10.2 11 15 1.4 1.8 13.5 17.1 15.4 21.5 6.2 14.2-1.2 35.3-15.4 44.1l-0.6 0.3c-4.5 2.8-7.5 4.5-17 5.2-8.3 0.6-22.4 0.6-50.9 0.6h-79.7v-48.1h103.4l0.8-0.6q0.1 0 0.1-0.1 0 0 0-0.1c-1.3-2-5.4-6.6-9.8-11.5-14.9-16.8-18-21.7-17-35.2 0.5-8.1 4.4-16.8 10.2-23.5 7.1-8.2 16.9-12.7 27.3-12.7l181.6-0.3zm-189.6 8.3c-18.3 0-28.7 17.1-29.6 28.8-0.7 10.3 0.8 13.2 15.1 29.3 12.1 13.6 12.4 14.1 11.8 17.8-0.4 2.5-1.6 4.4-3.5 5.8l-2.9 2h-97.9v32.1c3.3 0 68.7 0 71.7 0 57.8 0 56.5-0.1 64.3-4.9 10.9-6.8 16.9-23.4 12.3-34.1-0.9-1.9-7.3-10.8-14.4-19.7-10.8-13.7-12.8-16.7-12.8-19.8 0-2.4 1.1-8.8 9.2-8.8l66.8-0.2v87.5h34.2v-87.5h57.3v-28.6z"/>
		</g>
		<g id="Layer">
			<path id="Layer" fill-rule="evenodd" class="s0" d="m427.1 80.2l40.2 116.3 3.7 10.6h-11.3l-32.8-0.2h-5.9l-1.7-5.7-3.6-11.7-46.6-0.2-3.5 11.1-1.7 5.6h-50.5l3.6-10.6 39.8-115.2 1.8-5.3h66.6zm-62.7 2.6l-39.8 115.1h33.4l5.2-16.8 58.5 0.3 5.3 17.4 32.8 0.2-40.2-116.2zm28.7 16.3c0.1 0 19.6 57.2 19.5 57.2q0 0 0 0l-39.8 0.1c-0.5 0 20.2-57.3 20.3-57.3zm8.4 49.3c-2.4-7.1-5.7-16.7-8.6-25.3-3.1 8.6-6.5 18.3-9 25.3z"/>
		</g>
		<g id="Layer">
			<path id="Layer" fill-rule="evenodd" class="s0" d="m581.1 75.9c9.9 1.8 18.9 7.1 25.5 15.1 6.7 8.1 8.6 13 9.5 24 1.3 16.2-6.6 30.7-21.6 39.6q-0.5 0.3-1.2 0.7c0.5 0.5 1 0.9 1.4 1.2l1.3 1 59.4 0.8 7.7 0.1 0.1 7.8 0.7 31.6 0.1 8.2h-46.2c-34.2 0-40.5-0.4-44.2-1.6-4.9-1.7-12.2-7.1-37.2-30.8l-0.8-0.8v25.2l0.1 8h-53.1v-131.1h49.8c15.9 0 43.3 0.1 48.7 1zm-90.5 7v115.1h37l-0.1-44 14.4 13.8c20.2 19.2 30.1 27.6 34.3 29 2.7 0.9 12.2 1.2 41.6 1.2h38.1l-0.7-31.7-62-0.9-3.4-2.6c-1.8-1.4-4.7-4.2-6.3-6.1-2.6-3-2.8-3.6-1.4-4.3 1-0.4 4.7-2.5 8.3-4.7 12.5-7.4 18.8-18.8 17.7-32.1-0.7-9.4-2-12.7-7.7-19.6-5.4-6.5-12.6-10.8-20.6-12.2-3.5-0.6-21.5-0.9-47.4-0.9zm36.3 23.2h18c15.3 0 18.4 0.2 21.7 1.6 5.7 2.5 8 5.6 8.6 11.6 0.5 5.8-1.2 9.6-6.1 13.2-2.7 2.1-3.3 2.1-22.5 2.1h-19.7zm8 20.6h11.7c8.7 0 15.6 0 17.5-0.4q0 0 0.2-0.1c2.8-2.1 3.2-3.3 2.9-6.1-0.3-2.9-0.6-3.6-3.8-5-1.7-0.7-4.5-1-18.5-1h-10z"/>
		</g>
	</g>
</svg>